<svg width="24" height="24" viewBox="0 0 24 24" fill="none" xmlns="http://www.w3.org/2000/svg">
<circle cx="12" cy="12" r="12" fill="#03DCCF"/>
<g clip-path="url(#clip0_117_230)">
<path d="M10.3228 13.882C10.2488 14.1583 9.96478 14.3222 9.68849 14.2482C9.4122 14.1742 9.24823 13.8902 9.32226 13.6139C9.3963 13.3376 9.68029 13.1736 9.95658 13.2477C10.2329 13.3217 10.3968 13.6057 10.3228 13.882Z" fill="black"/>
<path d="M13.3244 14.6863C13.2504 14.9626 12.9664 15.1265 12.6901 15.0525C12.4138 14.9785 12.2498 14.6945 12.3239 14.4182C12.3979 14.1419 12.6819 13.9779 12.9582 14.052C13.2345 14.126 13.3984 14.41 13.3244 14.6863Z" fill="black"/>
<path d="M10.2988 15.216C9.98882 15.133 9.67022 15.3169 9.58717 15.6269C9.54622 15.7797 9.56936 15.9426 9.65125 16.078L9.73524 16.2168C9.88727 16.4681 10.1043 16.657 10.3521 16.7741L10.2019 17.3348C10.1649 17.4729 10.2469 17.6149 10.385 17.652C10.5232 17.689 10.6652 17.607 10.7022 17.4688L10.8524 16.9081C11.1256 16.9306 11.408 16.8756 11.6653 16.734L11.8075 16.6557C11.9461 16.5794 12.0476 16.4499 12.0885 16.2971C12.1716 15.9871 11.9876 15.6685 11.6777 15.5855L10.2988 15.216Z" fill="black"/>
<path fill-rule="evenodd" clip-rule="evenodd" d="M13.904 5.28857C13.8733 5.22001 13.8145 5.16838 13.7428 5.14714C13.6711 5.1259 13.5937 5.13715 13.5307 5.17796L12.0965 6.10681L11.3576 5.34939C11.2607 5.24999 11.1026 5.2461 11.0002 5.34062L10.2113 6.06904L8.55056 5.62406C8.42321 5.58993 8.2905 5.65836 8.24332 5.78246L7.67777 7.27002L6.2964 7.55582C6.18665 7.57853 6.10386 7.67 6.09164 7.78203L5.92942 9.27029L4.97893 10.1634C4.90123 10.2365 4.8759 10.3498 4.91514 10.4489L4.91558 10.45L4.91782 10.4558C4.9199 10.4613 4.9231 10.4698 4.9272 10.481C4.93543 10.5034 4.94725 10.5368 4.96102 10.5786C4.98866 10.6626 5.02358 10.7792 5.05297 10.9099C5.11525 11.1869 5.1386 11.4683 5.07381 11.649C5.06318 11.6786 5.02833 11.7398 4.95609 11.8388C4.88789 11.9323 4.80228 12.0386 4.70754 12.1561L4.7012 12.164C4.55069 12.3506 4.37722 12.5658 4.25513 12.7635C4.19325 12.8637 4.13618 12.9725 4.10357 13.081C4.07194 13.1863 4.05213 13.3291 4.11798 13.4668C4.14741 13.5284 4.19991 13.5756 4.26399 13.5982L5.52542 14.0432L4.85483 15.0062C4.80485 15.0779 4.7942 15.1701 4.8265 15.2512C4.85881 15.3323 4.92971 15.3914 5.01497 15.4082L6.55576 15.7121C6.57856 17.1826 7.56262 18.5043 9.02866 18.8971L10.9375 19.4085C12.3733 19.7933 13.8542 19.1753 14.6239 17.964L15.7553 18.6769C15.8276 18.7225 15.9177 18.7289 15.9959 18.694C16.0741 18.6591 16.1301 18.5876 16.1454 18.503L16.383 17.192L17.736 17.2529C17.7915 17.2554 17.8464 17.2398 17.8924 17.2083C18.0251 17.1177 18.078 16.9723 18.1021 16.8627C18.1278 16.7462 18.1329 16.6144 18.1296 16.4862C18.1228 16.2321 18.0801 15.9342 18.044 15.683L18.0428 15.6742C18.022 15.5295 18.0036 15.4013 17.993 15.2955C17.9877 15.2429 17.9847 15.1997 17.984 15.1657C17.9837 15.1488 17.9839 15.1358 17.9845 15.1262C17.985 15.1172 17.9857 15.1133 17.9857 15.1133C18.0238 14.9219 18.187 14.6882 18.3782 14.4793C18.4687 14.3805 18.5566 14.2966 18.6219 14.2375C18.6545 14.2081 18.6811 14.185 18.6993 14.1696L18.7101 14.1605L18.7198 14.1524L18.7246 14.1485L18.7255 14.1478C18.8079 14.0814 18.842 13.9712 18.8115 13.8699L18.4349 12.6211L19.0385 11.2511C19.084 11.148 19.058 11.0274 18.9743 10.9529L17.9208 10.0146L18.1728 8.45132C18.1939 8.32071 18.1137 8.19548 17.987 8.16093L16.3275 7.70853L16.0083 6.68254C15.9683 6.55402 15.8369 6.47826 15.7062 6.50839L14.5668 6.77108L13.904 5.28857ZM9.36596 11.8736C10.1582 11.5068 11.0791 11.4037 11.9936 11.6487C12.9081 11.8938 13.654 12.4435 14.1567 13.1572L14.3731 13.4643L14.5831 13.1529C14.7636 12.8854 15.1 12.7492 15.4284 12.8372C15.8428 12.9483 16.0888 13.3742 15.9777 13.7887C15.8729 14.1801 15.4867 14.4215 15.0951 14.3532L14.7248 14.2887L14.7964 14.6576C14.9195 15.2922 14.8853 15.9674 14.6631 16.6277L14.5151 17.0673C14.0354 18.4924 12.5306 19.2992 11.0782 18.9101L9.15568 18.3949C7.70321 18.0057 6.80342 16.5546 7.10057 15.0806L7.19223 14.6259C7.32991 13.9429 7.63787 13.3411 8.06177 12.8531L8.30827 12.5694L7.95532 12.4401C7.58206 12.3034 7.3683 11.9014 7.4732 11.5099C7.58425 11.0955 8.01023 10.8495 8.42467 10.9606C8.75312 11.0486 8.97632 11.3347 8.99885 11.6566L9.02508 12.0313L9.36596 11.8736Z" fill="black"/>
</g>
<defs>
<clipPath id="clip0_117_230">
<rect width="16.5733" height="16.5733" fill="white" transform="translate(6 2) rotate(15)"/>
</clipPath>
</defs>
</svg>
