<svg width="119" height="29" viewBox="0 0 119 29" fill="none" xmlns="http://www.w3.org/2000/svg">
<path d="M8.41193 9.90909V12.6364H0.528409V9.90909H8.41193ZM2.31818 6.77273H5.94886V18.9773C5.94886 19.3125 6 19.5739 6.10227 19.7614C6.20455 19.9432 6.34659 20.071 6.52841 20.1449C6.71591 20.2187 6.93182 20.2557 7.17614 20.2557C7.34659 20.2557 7.51705 20.2415 7.6875 20.2131C7.85795 20.179 7.98864 20.1534 8.07955 20.1364L8.65057 22.8381C8.46875 22.8949 8.21307 22.9602 7.88352 23.0341C7.55398 23.1136 7.15341 23.1619 6.68182 23.179C5.80682 23.2131 5.03977 23.0966 4.38068 22.8295C3.72727 22.5625 3.21875 22.1477 2.85511 21.5852C2.49148 21.0227 2.3125 20.3125 2.31818 19.4545V6.77273ZM10.777 23V9.90909H14.2969V12.1932H14.4332C14.6719 11.3807 15.0724 10.767 15.6349 10.3523C16.1974 9.93182 16.8452 9.72159 17.5781 9.72159C17.7599 9.72159 17.956 9.73295 18.1662 9.75568C18.3764 9.77841 18.5611 9.80966 18.7202 9.84943V13.071C18.5497 13.0199 18.3139 12.9744 18.0128 12.9347C17.7116 12.8949 17.4361 12.875 17.1861 12.875C16.652 12.875 16.1747 12.9915 15.7543 13.2244C15.3395 13.4517 15.0099 13.7699 14.7656 14.179C14.527 14.5881 14.4077 15.0597 14.4077 15.5938V23H10.777ZM23.9553 23.2472C23.12 23.2472 22.3757 23.1023 21.7223 22.8125C21.0689 22.517 20.5518 22.0824 20.1712 21.5085C19.7962 20.929 19.6087 20.2074 19.6087 19.3438C19.6087 18.6165 19.7422 18.0057 20.0092 17.5114C20.2763 17.017 20.6399 16.6193 21.1001 16.3182C21.5604 16.017 22.0831 15.7898 22.6683 15.6364C23.2592 15.483 23.8786 15.375 24.5263 15.3125C25.2876 15.233 25.9013 15.1591 26.3672 15.0909C26.8331 15.017 27.1712 14.9091 27.3814 14.767C27.5916 14.625 27.6967 14.4148 27.6967 14.1364V14.0852C27.6967 13.5455 27.5263 13.1278 27.1854 12.8324C26.8501 12.5369 26.3729 12.3892 25.7536 12.3892C25.1001 12.3892 24.5803 12.5341 24.1939 12.8239C23.8075 13.108 23.5518 13.4659 23.4268 13.8977L20.0689 13.625C20.2393 12.8295 20.5746 12.142 21.0746 11.5625C21.5746 10.9773 22.2195 10.5284 23.0092 10.2159C23.8047 9.89773 24.7251 9.73864 25.7706 9.73864C26.4979 9.73864 27.1939 9.82386 27.8587 9.99432C28.5291 10.1648 29.1229 10.429 29.6399 10.7869C30.1626 11.1449 30.5746 11.6051 30.8757 12.1676C31.1768 12.7244 31.3274 13.392 31.3274 14.1705V23H27.8842V21.1847H27.782C27.5717 21.5938 27.2905 21.9545 26.9382 22.267C26.5859 22.5739 26.1626 22.8153 25.6683 22.9915C25.174 23.1619 24.603 23.2472 23.9553 23.2472ZM24.995 20.7415C25.5291 20.7415 26.0007 20.6364 26.4098 20.4261C26.8189 20.2102 27.1399 19.9205 27.3729 19.5568C27.6058 19.1932 27.7223 18.7812 27.7223 18.321V16.9318C27.6087 17.0057 27.4524 17.0739 27.2536 17.1364C27.0604 17.1932 26.8416 17.2472 26.5973 17.2983C26.353 17.3437 26.1087 17.3864 25.8643 17.4261C25.62 17.4602 25.3984 17.4915 25.1996 17.5199C24.7734 17.5824 24.4013 17.6818 24.0831 17.8182C23.7649 17.9545 23.5178 18.1392 23.3416 18.3722C23.1655 18.5994 23.0774 18.8835 23.0774 19.2244C23.0774 19.7188 23.2564 20.0966 23.6143 20.358C23.978 20.6136 24.4382 20.7415 24.995 20.7415ZM38.968 23.2131C37.9737 23.2131 37.0732 22.9574 36.2663 22.446C35.4652 21.929 34.8288 21.1705 34.3572 20.1705C33.8913 19.1648 33.6584 17.9318 33.6584 16.4716C33.6584 14.9716 33.8999 13.7244 34.3828 12.7301C34.8658 11.7301 35.5078 10.983 36.3089 10.4886C37.1158 9.98864 37.9993 9.73864 38.9595 9.73864C39.6925 9.73864 40.3033 9.86364 40.7919 10.1136C41.2862 10.358 41.6839 10.6648 41.9851 11.0341C42.2919 11.3977 42.5249 11.7557 42.6839 12.108H42.7947V5.54545H46.4169V23H42.8374V20.9034H42.6839C42.5135 21.267 42.272 21.6278 41.9595 21.9858C41.6527 22.3381 41.2521 22.6307 40.7578 22.8636C40.2692 23.0966 39.6726 23.2131 38.968 23.2131ZM40.1186 20.3239C40.7038 20.3239 41.1982 20.1648 41.6016 19.8466C42.0107 19.5227 42.3232 19.071 42.5391 18.4915C42.7607 17.9119 42.8714 17.233 42.8714 16.4545C42.8714 15.6761 42.7635 15 42.5476 14.4261C42.3317 13.8523 42.0192 13.4091 41.6101 13.0966C41.201 12.7841 40.7038 12.6278 40.1186 12.6278C39.522 12.6278 39.0192 12.7898 38.6101 13.1136C38.201 13.4375 37.8913 13.8864 37.6811 14.4602C37.4709 15.0341 37.3658 15.6989 37.3658 16.4545C37.3658 17.2159 37.4709 17.8892 37.6811 18.4744C37.897 19.054 38.2067 19.5085 38.6101 19.8381C39.0192 20.1619 39.522 20.3239 40.1186 20.3239ZM55.3679 23.2557C54.0213 23.2557 52.8622 22.983 51.8906 22.4375C50.9247 21.8864 50.1804 21.108 49.6577 20.1023C49.1349 19.0909 48.8736 17.8949 48.8736 16.5142C48.8736 15.1676 49.1349 13.9858 49.6577 12.9688C50.1804 11.9517 50.9162 11.1591 51.8651 10.5909C52.8196 10.0227 53.9389 9.73864 55.223 9.73864C56.0866 9.73864 56.8906 9.87784 57.6349 10.1562C58.3849 10.429 59.0384 10.8409 59.5952 11.392C60.1577 11.9432 60.5952 12.6364 60.9077 13.4716C61.2202 14.3011 61.3764 15.2727 61.3764 16.3864V17.3835H50.3224V15.1335H57.9588C57.9588 14.6108 57.8452 14.1477 57.6179 13.7443C57.3906 13.3409 57.0753 13.0256 56.6719 12.7983C56.2741 12.5653 55.8111 12.4489 55.2827 12.4489C54.7315 12.4489 54.2429 12.5767 53.8168 12.8324C53.3963 13.0824 53.0668 13.4205 52.8281 13.8466C52.5895 14.267 52.4673 14.7358 52.4616 15.2528V17.392C52.4616 18.0398 52.581 18.5994 52.8196 19.071C53.0639 19.5426 53.4077 19.9062 53.8509 20.1619C54.294 20.4176 54.8196 20.5455 55.4276 20.5455C55.831 20.5455 56.2003 20.4886 56.5355 20.375C56.8707 20.2614 57.1577 20.0909 57.3963 19.8636C57.6349 19.6364 57.8168 19.358 57.9418 19.0284L61.2997 19.25C61.1293 20.0568 60.7798 20.7614 60.2514 21.3636C59.7287 21.9602 59.0526 22.4261 58.223 22.7614C57.3991 23.0909 56.4474 23.2557 55.3679 23.2557ZM63.7457 23V9.90909H67.3764V23H63.7457ZM65.5696 8.22159C65.0298 8.22159 64.5668 8.04261 64.1804 7.68466C63.7997 7.32102 63.6094 6.88636 63.6094 6.38068C63.6094 5.88068 63.7997 5.4517 64.1804 5.09375C64.5668 4.73011 65.0298 4.54829 65.5696 4.54829C66.1094 4.54829 66.5696 4.73011 66.9503 5.09375C67.3366 5.4517 67.5298 5.88068 67.5298 6.38068C67.5298 6.88636 67.3366 7.32102 66.9503 7.68466C66.5696 8.04261 66.1094 8.22159 65.5696 8.22159ZM77.3246 9.90909V12.6364H69.245V9.90909H77.3246ZM71.0945 23V8.96307C71.0945 8.0142 71.2791 7.22727 71.6484 6.60227C72.0234 5.97727 72.5348 5.50852 73.1825 5.19602C73.8303 4.88352 74.5661 4.72727 75.3899 4.72727C75.9467 4.72727 76.4553 4.76989 76.9155 4.85511C77.3814 4.94034 77.728 5.01705 77.9553 5.08523L77.3075 7.8125C77.1655 7.76705 76.9893 7.72443 76.7791 7.68466C76.5746 7.64489 76.3643 7.625 76.1484 7.625C75.6143 7.625 75.2422 7.75 75.032 8C74.8217 8.24432 74.7166 8.58807 74.7166 9.03125V23H71.0945ZM81.7841 27.9091C81.3239 27.9091 80.892 27.8722 80.4886 27.7983C80.0909 27.7301 79.7614 27.642 79.5 27.5341L80.3182 24.8239C80.7443 24.9545 81.1278 25.0256 81.4688 25.0369C81.8153 25.0483 82.1136 24.9688 82.3636 24.7983C82.6193 24.6278 82.8267 24.3381 82.9858 23.929L83.1989 23.375L78.5028 9.90909H82.321L85.0312 19.5227H85.1676L87.9034 9.90909H91.7472L86.6591 24.4148C86.4148 25.1193 86.0824 25.733 85.6619 26.2557C85.2472 26.7841 84.7216 27.1903 84.0852 27.4744C83.4489 27.7642 82.6818 27.9091 81.7841 27.9091Z" fill="black"/>
<circle cx="107" cy="14" r="12" fill="#03DCCF"/>
<g clip-path="url(#clip0_117_238)">
<path d="M105.323 15.882C105.249 16.1583 104.965 16.3222 104.688 16.2482C104.412 16.1742 104.248 15.8902 104.322 15.6139C104.396 15.3376 104.68 15.1737 104.957 15.2477C105.233 15.3217 105.397 15.6057 105.323 15.882Z" fill="black"/>
<path d="M108.324 16.6863C108.25 16.9626 107.966 17.1265 107.69 17.0525C107.414 16.9785 107.25 16.6945 107.324 16.4182C107.398 16.1419 107.682 15.9779 107.958 16.052C108.234 16.126 108.398 16.41 108.324 16.6863Z" fill="black"/>
<path d="M105.299 17.216C104.989 17.133 104.67 17.3169 104.587 17.6269C104.546 17.7797 104.569 17.9426 104.651 18.078L104.735 18.2168C104.887 18.4682 105.104 18.657 105.352 18.7741L105.202 19.3348C105.165 19.4729 105.247 19.6149 105.385 19.652C105.523 19.689 105.665 19.607 105.702 19.4688L105.852 18.9081C106.126 18.9306 106.408 18.8756 106.665 18.734L106.807 18.6557C106.946 18.5794 107.048 18.4499 107.089 18.2971C107.172 17.9871 106.988 17.6685 106.678 17.5855L105.299 17.216Z" fill="black"/>
<path fill-rule="evenodd" clip-rule="evenodd" d="M108.904 7.28857C108.873 7.22001 108.814 7.16839 108.743 7.14714C108.671 7.1259 108.594 7.13715 108.531 7.17796L107.097 8.10681L106.358 7.3494C106.261 7.24999 106.103 7.24611 106 7.34062L105.211 8.06904L103.551 7.62406C103.423 7.58994 103.291 7.65836 103.243 7.78247L102.678 9.27003L101.296 9.55583C101.187 9.57853 101.104 9.67001 101.092 9.78204L100.929 11.2703L99.9789 12.1634C99.9012 12.2365 99.8759 12.3498 99.9151 12.4489L99.9156 12.45L99.9178 12.4558C99.9199 12.4613 99.9231 12.4698 99.9272 12.481C99.9354 12.5034 99.9473 12.5368 99.961 12.5786C99.9887 12.6626 100.024 12.7792 100.053 12.9099C100.115 13.1869 100.139 13.4683 100.074 13.649C100.063 13.6786 100.028 13.7398 99.9561 13.8388C99.8879 13.9323 99.8023 14.0386 99.7075 14.1561L99.7012 14.164C99.5507 14.3506 99.3772 14.5658 99.2551 14.7635C99.1932 14.8637 99.1362 14.9725 99.1036 15.081C99.0719 15.1863 99.0521 15.3291 99.118 15.4668C99.1474 15.5284 99.1999 15.5756 99.264 15.5982L100.525 16.0432L99.8548 17.0062C99.8049 17.0779 99.7942 17.1701 99.8265 17.2512C99.8588 17.3323 99.9297 17.3914 100.015 17.4082L101.556 17.7121C101.579 19.1827 102.563 20.5043 104.029 20.8971L105.937 21.4085C107.373 21.7933 108.854 21.1753 109.624 19.964L110.755 20.6769C110.828 20.7225 110.918 20.7289 110.996 20.694C111.074 20.6591 111.13 20.5876 111.145 20.503L111.383 19.192L112.736 19.2529C112.792 19.2554 112.846 19.2398 112.892 19.2083C113.025 19.1177 113.078 18.9723 113.102 18.8627C113.128 18.7462 113.133 18.6144 113.13 18.4862C113.123 18.2321 113.08 17.9342 113.044 17.683L113.043 17.6742C113.022 17.5295 113.004 17.4013 112.993 17.2955C112.988 17.2429 112.985 17.1997 112.984 17.1657C112.984 17.1488 112.984 17.1358 112.984 17.1262C112.985 17.1172 112.986 17.1133 112.986 17.1133C113.024 16.9219 113.187 16.6882 113.378 16.4793C113.469 16.3805 113.557 16.2966 113.622 16.2375C113.654 16.2081 113.681 16.185 113.699 16.1696L113.71 16.1605L113.72 16.1524L113.725 16.1485L113.725 16.1478C113.808 16.0814 113.842 15.9712 113.811 15.8699L113.435 14.6211L114.039 13.2511C114.084 13.148 114.058 13.0274 113.974 12.9529L112.921 12.0146L113.173 10.4513C113.194 10.3207 113.114 10.1955 112.987 10.1609L111.328 9.70853L111.008 8.68254C110.968 8.55402 110.837 8.47826 110.706 8.50839L109.567 8.77108L108.904 7.28857ZM104.366 13.8736C105.158 13.5068 106.079 13.4037 106.994 13.6488C107.908 13.8938 108.654 14.4435 109.157 15.1572L109.373 15.4643L109.583 15.1529C109.764 14.8854 110.1 14.7492 110.428 14.8372C110.843 14.9483 111.089 15.3742 110.978 15.7887C110.873 16.1801 110.487 16.4215 110.095 16.3532L109.725 16.2887L109.796 16.6576C109.92 17.2922 109.885 17.9674 109.663 18.6277L109.515 19.0673C109.035 20.4924 107.531 21.2992 106.078 20.9101L104.156 20.3949C102.703 20.0057 101.803 18.5546 102.101 17.0806L102.192 16.6259C102.33 15.9429 102.638 15.3411 103.062 14.8531L103.308 14.5694L102.955 14.4401C102.582 14.3034 102.368 13.9014 102.473 13.5099C102.584 13.0955 103.01 12.8495 103.425 12.9606C103.753 13.0486 103.976 13.3347 103.999 13.6566L104.025 14.0313L104.366 13.8736Z" fill="black"/>
</g>
<defs>
<clipPath id="clip0_117_238">
<rect width="16.5733" height="16.5733" fill="white" transform="translate(101 4) rotate(15)"/>
</clipPath>
</defs>
</svg>
